# xmcd CD database file
#
# Track frame offsets:
#	150
#	15262
#	29626
#	47751
#	66207
#	91190
#	111882
#	137253
#	152479
#	167630
#	184000
#	200191
#
# Disc length: 2779 seconds
#
# Revision: 0
# Processed by: cddbd v1.5.1PL0 Copyright (c) Steve Scherf et al.
# Submitted via: CDex 1.51
#
DISCID=960ad90c
DTITLE=Larry Schuba and Western Union - Willkommen im Leben
DYEAR=2005
DGENRE=Country
TTITLE0=Der grösste Hit von mir
TTITLE1=Sag einfach ja
TTITLE2=Johnny ist gegangen
TTITLE3=Marina
TTITLE4=Das ist "Country" (Das Greifensteinlied)
TTITLE5=Wie die Blumen welken
TTITLE6=Solange kannst du auf mich zählen
TTITLE7=Tänzer auf dem Seil
TTITLE8=Geburtstagslied
TTITLE9=Die Bibel und ein Ticket nach Haus
TTITLE10=Willkommen im Leben
TTITLE11=Jumping Strings (instrumental)
EXTD=YEAR: 2005
EXTT0=
EXTT1=
EXTT2=
EXTT3=
EXTT4=
EXTT5=
EXTT6=
EXTT7=
EXTT8=
EXTT9=
EXTT10=
EXTT11=
PLAYORDER=
